<svg width="147" height="178" viewBox="0 0 147 178" fill="none" xmlns="http://www.w3.org/2000/svg">
<path d="M146.197 22.4577C135.103 12.8612 121.862 6.10652 107.646 2.792C93.4312 -0.522511 78.6807 -0.294565 64.7014 3.45566C50.722 7.20588 37.9455 14.3626 27.5034 24.2919C17.0613 34.2212 9.27597 46.6166 4.83708 60.3802C0.398188 74.1437 -0.557279 88.8505 2.05531 103.198C4.66789 117.545 10.7679 131.09 19.815 142.633C28.8621 154.176 40.577 163.361 53.922 169.374C67.2671 175.386 81.8303 178.041 96.3218 177.104L94.6598 156.974C83.4746 157.698 72.234 155.649 61.9336 151.008C51.6333 146.367 42.5911 139.278 35.6081 130.368C28.6252 121.459 23.9169 111.004 21.9004 99.9303C19.8838 88.8563 20.6213 77.5049 24.0475 66.8815C27.4736 56.2581 33.4827 46.6908 41.5424 39.0268C49.6021 31.3629 59.4637 25.839 70.2536 22.9444C81.0436 20.0498 92.4288 19.8738 103.401 22.4321C114.373 24.9904 124.593 30.204 133.156 37.6111L146.197 22.4577Z" fill="#0F6762"/>
</svg>
